<?xml version="1.0" encoding="UTF-8" standalone="no"?>
<svg
   xmlns:dc="http://purl.org/dc/elements/1.1/"
   xmlns:cc="http://creativecommons.org/ns#"
   xmlns:rdf="http://www.w3.org/1999/02/22-rdf-syntax-ns#"
   xmlns:svg="http://www.w3.org/2000/svg"
   xmlns="http://www.w3.org/2000/svg"
   xmlns:sodipodi="http://sodipodi.sourceforge.net/DTD/sodipodi-0.dtd"
   xmlns:inkscape="http://www.inkscape.org/namespaces/inkscape"
   inkscape:version="1.0 (4035a4fb49, 2020-05-01)"
   sodipodi:docname="beard.svg"
   xml:space="preserve"
   style="enable-background:new 0 0 122.88 87.57"
   viewBox="0 0 122.88 87.57"
   y="0px"
   x="0px"
   id="Layer_1"
   version="1.1"><metadata
     id="metadata13"><rdf:RDF><cc:Work
         rdf:about=""><dc:format>image/svg+xml</dc:format><dc:type
           rdf:resource="http://purl.org/dc/dcmitype/StillImage" /></cc:Work></rdf:RDF></metadata><defs
     id="defs11" /><sodipodi:namedview
     inkscape:current-layer="Layer_1"
     inkscape:window-maximized="1"
     inkscape:window-y="-8"
     inkscape:window-x="-8"
     inkscape:cy="45.747479"
     inkscape:cx="58.201494"
     inkscape:zoom="6.9442941"
     showgrid="false"
     id="namedview9"
     inkscape:window-height="1027"
     inkscape:window-width="1920"
     inkscape:pageshadow="2"
     inkscape:pageopacity="0"
     guidetolerance="10"
     gridtolerance="10"
     objecttolerance="10"
     borderopacity="1"
     bordercolor="#666666"
     pagecolor="#ffffff" /><style
     id="style2"
     type="text/css">.st0{fill-rule:evenodd;clip-rule:evenodd;}</style><g
     style="fill:#c5c5c5;fill-opacity:1"
     id="g6"><path
       style="fill:#c5c5c5;fill-opacity:1"
       id="path4"
       d="M25.29,38.29c-0.77,1.82-1.36,3.71-1.79,5.66C8.06,25.12,9.91,29.85,8.21,5.56L0,0 c0.28,32.54,3.89,81.46,47.72,87.32c3.66,0.49,8.32,0.25,13.92-0.68c28.17,7.05,57.66-28.25,59.99-53.17 c1.11-11.11,1.58-22.23,1.01-33.34l-7.96,5.68c-1.46,23.72-0.12,19.13-14.78,37.89c-4.44-17.59-34.45-23.75-38.09-17.15 C55.97,18.96,29.19,29.09,25.29,38.29L25.29,38.29z M36.85,49.91c0.58-3.92,2.29-6.46,3.95-8.89c3.21-4.69,5.24-4.38,9.92-3.65 c8.36,1.31,16.67,1.04,24.91-0.75c5.38-0.08,10.9,9.34,10.35,13.71c-0.52,4.12-8.42,9.05-12.64,9.02 c-3.77-0.02-7.74-2.05-11.91-6.15C52.99,61.87,44.34,60.92,36.85,49.91L36.85,49.91z"
       class="st0" /></g></svg>
