<?xml version="1.0" encoding="UTF-8" standalone="no"?>
<svg
   xmlns:dc="http://purl.org/dc/elements/1.1/"
   xmlns:cc="http://creativecommons.org/ns#"
   xmlns:rdf="http://www.w3.org/1999/02/22-rdf-syntax-ns#"
   xmlns:svg="http://www.w3.org/2000/svg"
   xmlns="http://www.w3.org/2000/svg"
   xmlns:sodipodi="http://sodipodi.sourceforge.net/DTD/sodipodi-0.dtd"
   xmlns:inkscape="http://www.inkscape.org/namespaces/inkscape"
   inkscape:version="1.0 (4035a4fb49, 2020-05-01)"
   sodipodi:docname="cog.svg"
   xml:space="preserve"
   style="enable-background:new 0 0 32 32;"
   viewBox="0 0 32 32"
   y="0px"
   x="0px"
   id="Icons"
   version="1.1"><metadata
   id="metadata13"><rdf:RDF><cc:Work
       rdf:about=""><dc:format>image/svg+xml</dc:format><dc:type
         rdf:resource="http://purl.org/dc/dcmitype/StillImage" /></cc:Work></rdf:RDF></metadata><defs
   id="defs11" /><sodipodi:namedview
   inkscape:current-layer="Icons"
   inkscape:window-maximized="1"
   inkscape:window-y="-8"
   inkscape:window-x="1912"
   inkscape:cy="16"
   inkscape:cx="14.995349"
   inkscape:zoom="26.875"
   showgrid="false"
   id="namedview9"
   inkscape:window-height="1027"
   inkscape:window-width="1920"
   inkscape:pageshadow="2"
   inkscape:pageopacity="0"
   guidetolerance="10"
   gridtolerance="10"
   objecttolerance="10"
   borderopacity="1"
   bordercolor="#666666"
   pagecolor="#ffffff" />
<style
   id="style2"
   type="text/css">
	.st0{fill:none;stroke:#000000;stroke-width:2;stroke-linecap:round;stroke-linejoin:round;stroke-miterlimit:10;}
	.st1{fill:none;stroke:#000000;stroke-width:2;stroke-linejoin:round;stroke-miterlimit:10;}
	.st2{fill:none;stroke:#000000;stroke-width:2;stroke-linecap:round;stroke-miterlimit:10;}
</style>
<path
   style="stroke:#c5c5c5;stroke-opacity:1"
   id="path4"
   d="M28.7,13.4c-0.3-1.7-1-3.2-1.9-4.6c-1.5,0.8-3,0.9-3.8,0.1c-0.8-0.8-0.7-2.2,0.1-3.8c-1.4-0.9-2.9-1.6-4.6-1.9  C18.1,4.9,17.1,6,16,6s-2.1-1.1-2.6-2.7c-1.7,0.3-3.2,1-4.6,1.9c0.8,1.5,0.9,3,0.1,3.8S6.7,9.6,5.2,8.8c-0.9,1.4-1.6,2.9-1.9,4.6  C4.9,13.9,6,14.9,6,16s-1.1,2.1-2.7,2.6c0.3,1.7,1,3.2,1.9,4.6c1.5-0.8,3-0.9,3.8-0.1s0.7,2.2-0.1,3.8c1.4,0.9,2.9,1.6,4.6,1.9  c0.5-1.6,1.5-2.7,2.6-2.7s2.1,1.1,2.6,2.7c1.7-0.3,3.2-1,4.6-1.9c-0.8-1.5-0.9-3-0.1-3.8c0.8-0.8,2.2-0.7,3.8,0.1  c0.9-1.4,1.6-2.9,1.9-4.6C27.1,18.1,26,17.1,26,16S27.1,13.9,28.7,13.4z"
   class="st0" />
<circle
   style="stroke:#c5c5c5;stroke-opacity:1"
   id="circle6"
   r="3"
   cy="16"
   cx="16"
   class="st0" />
</svg>
