<?xml version="1.0" encoding="UTF-8" standalone="no"?>
<svg
   xmlns:dc="http://purl.org/dc/elements/1.1/"
   xmlns:cc="http://creativecommons.org/ns#"
   xmlns:rdf="http://www.w3.org/1999/02/22-rdf-syntax-ns#"
   xmlns:svg="http://www.w3.org/2000/svg"
   xmlns="http://www.w3.org/2000/svg"
   xmlns:sodipodi="http://sodipodi.sourceforge.net/DTD/sodipodi-0.dtd"
   xmlns:inkscape="http://www.inkscape.org/namespaces/inkscape"
   inkscape:version="1.0 (4035a4fb49, 2020-05-01)"
   sodipodi:docname="templateFile.svg"
   id="svg8"
   version="1.1"
   height="16"
   width="16">
  <metadata
     id="metadata14">
    <rdf:RDF>
      <cc:Work
         rdf:about="">
        <dc:format>image/svg+xml</dc:format>
        <dc:type
           rdf:resource="http://purl.org/dc/dcmitype/StillImage" />
      </cc:Work>
    </rdf:RDF>
  </metadata>
  <defs
     id="defs12" />
  <sodipodi:namedview
     inkscape:current-layer="svg8"
     inkscape:window-maximized="1"
     inkscape:window-y="-8"
     inkscape:window-x="-8"
     inkscape:cy="6.3092871"
     inkscape:cx="11.295949"
     inkscape:zoom="26.875"
     showgrid="false"
     id="namedview10"
     inkscape:window-height="1027"
     inkscape:window-width="1920"
     inkscape:pageshadow="2"
     inkscape:pageopacity="0"
     guidetolerance="10"
     gridtolerance="10"
     objecttolerance="10"
     borderopacity="1"
     bordercolor="#666666"
     pagecolor="#ffffff" />
  <style
     id="style2"
     type="text/css">.icon-canvas-transparent{opacity:0;fill:#F6F6F6;} .icon-vs-out{opacity:0;fill:#F6F6F6;} .icon-vs-bg{fill:#656565;} .icon-vs-fg{fill:#F0EFF1;}</style>
  <path
     id="canvas"
     d="M16 16h-16v-16h16v16z"
     class="icon-canvas-transparent" />
  <path
     id="outline"
     d="M4 15c-.97 0-2-.701-2-2v-10c0-1.299 1.03-2 2-2h6.061l3.939 3.556v8.444c0 .97-.701 2-2 2h-8z"
     class="icon-vs-out" />
  <path
     id="iconBg"
     d="M9.641,2H3.964C3.964,2,3,2,3,3c0,0.805,0,7.442,0,10c0,1,0.965,1,0.965,1s7,0,8,0S13,13,13,13V5L9.641,2zM12,13H4V3h5v3h3V13z"
     class="icon-vs-bg" />
  <path
     id="iconFg"
     d="M4 3h5v3h3v7h-8v-10z"
     class="icon-vs-fg" />
  <text
     transform="scale(1.0374933,0.96386162)"
     id="text841"
     y="12.835964"
     x="4.0856986"
     style="font-style:normal;font-weight:normal;font-size:47.9133px;line-height:1.25;font-family:sans-serif;letter-spacing:0px;word-spacing:0px;fill:#656565;fill-opacity:1;stroke:none;stroke-width:1.19783"
     xml:space="preserve"><tspan
       style="font-style:normal;font-variant:normal;font-weight:normal;font-stretch:normal;font-size:9.58266px;font-family:'Times New Roman';-inkscape-font-specification:'Times New Roman, ';fill:#656565;fill-opacity:1;stroke-width:1.19783"
       y="12.835964"
       x="4.0856986"
       id="tspan839"
       sodipodi:role="line">T</tspan></text>
</svg>
